<?xml version="1.0" standalone="no"?>
<!DOCTYPE svg PUBLIC "-//W3C//DTD SVG 20010904//EN"
 "http://www.w3.org/TR/2001/REC-SVG-20010904/DTD/svg10.dtd">
<svg version="1.0" xmlns="http://www.w3.org/2000/svg"
 width="128.000000pt" height="128.000000pt" viewBox="0 0 128.000000 128.000000"
 preserveAspectRatio="xMidYMid meet">
<metadata>
Created by potrace 1.14, written by Peter Selinger 2001-2017
</metadata>
<g transform="translate(0.000000,128.000000) scale(0.100000,-0.100000)"
fill="#000000" stroke="none">
<path d="M618 1258 c-46 -70 -600 -981 -609 -1001 -16 -35 0 -59 69 -101 190
-115 460 -174 677 -147 167 20 322 71 447 147 62 38 83 64 74 92 -10 29 -622
1026 -633 1029 -6 2 -17 -7 -25 -19z m65 -103 c20 -35 37 -66 37 -68 0 -2 -36
-4 -80 -4 -44 0 -80 2 -80 4 0 8 75 133 80 133 3 0 22 -29 43 -65z m262 -430
l195 -320 -22 -19 c-41 -33 -175 -95 -255 -118 -112 -32 -334 -32 -446 0 -80
23 -215 85 -255 118 l-22 19 195 320 196 320 109 0 110 -1 195 -319z m-575
-487 c92 -31 100 -32 270 -32 170 0 178 1 270 32 52 17 131 52 174 77 44 25
80 44 81 42 17 -22 75 -119 75 -125 0 -4 -28 -24 -62 -44 -238 -139 -558 -179
-824 -103 -88 25 -283 114 -303 138 -7 9 1 30 29 74 l39 62 78 -45 c43 -24
121 -59 173 -76z"/>
<path d="M599 945 c-80 -44 -14 -170 70 -135 60 24 63 112 5 139 -32 14 -43
14 -75 -4z"/>
<path d="M439 745 c-80 -44 -14 -170 70 -135 60 24 63 112 5 139 -32 14 -43
14 -75 -4z"/>
<path d="M759 745 c-80 -44 -14 -170 70 -135 60 24 63 112 5 139 -32 14 -43
14 -75 -4z"/>
<path d="M319 525 c-80 -44 -14 -170 70 -135 60 24 63 112 5 139 -32 14 -43
14 -75 -4z"/>
<path d="M879 525 c-80 -44 -14 -170 70 -135 60 24 63 112 5 139 -32 14 -43
14 -75 -4z"/>
<path d="M599 465 c-80 -44 -14 -170 70 -135 60 24 63 112 5 139 -32 14 -43
14 -75 -4z"/>
</g>
</svg>
