<?xml version="1.0" standalone="no"?>
<!DOCTYPE svg PUBLIC "-//W3C//DTD SVG 20010904//EN"
 "http://www.w3.org/TR/2001/REC-SVG-20010904/DTD/svg10.dtd">
<svg version="1.0" xmlns="http://www.w3.org/2000/svg"
 width="128.000000pt" height="128.000000pt" viewBox="0 0 128.000000 128.000000"
 preserveAspectRatio="xMidYMid meet">
<metadata>
Created by potrace 1.14, written by Peter Selinger 2001-2017
</metadata>
<g transform="translate(0.000000,128.000000) scale(0.100000,-0.100000)"
fill="#000000" stroke="none">
<path d="M320 769 c-168 -276 -308 -508 -311 -517 -13 -33 10 -61 83 -101 179
-100 342 -142 548 -142 206 0 369 42 548 142 73 40 95 68 83 101 -3 9 -143
242 -311 517 -184 302 -311 500 -320 500 -9 0 -135 -197 -320 -500z m363 388
c20 -35 37 -66 37 -69 0 -3 -36 -5 -80 -5 -44 0 -80 2 -80 5 0 10 74 132 80
132 3 0 23 -29 43 -63z m259 -422 c105 -170 192 -317 195 -325 5 -18 -73 -68
-173 -110 -194 -80 -454 -80 -648 0 -76 32 -176 90 -176 102 0 6 186 314 358
594 l32 51 111 -1 111 -1 190 -310z m-732 -423 c232 -130 552 -143 795 -33 36
17 86 44 112 61 25 17 46 30 48 28 19 -27 75 -126 75 -135 0 -16 -103 -77
-188 -112 -224 -93 -499 -105 -726 -34 -91 28 -275 119 -283 139 -2 7 13 42
34 78 35 60 40 64 58 52 11 -7 45 -27 75 -44z"/>
<path d="M615 950 c-77 -30 -57 -143 25 -143 41 0 73 32 73 73 0 50 -53 88
-98 70z m55 -45 c26 -32 -13 -81 -47 -59 -35 22 -23 74 17 74 10 0 23 -7 30
-15z"/>
<path d="M455 750 c-77 -30 -57 -143 25 -143 87 0 100 124 15 146 -11 3 -29 2
-40 -3z m55 -45 c26 -32 -13 -81 -47 -59 -35 22 -23 74 17 74 10 0 23 -7 30
-15z"/>
<path d="M775 750 c-77 -30 -57 -143 25 -143 41 0 73 32 73 73 0 50 -53 88
-98 70z m55 -45 c26 -32 -13 -81 -47 -59 -35 22 -23 74 17 74 10 0 23 -7 30
-15z"/>
<path d="M335 530 c-77 -30 -57 -143 25 -143 41 0 73 32 73 73 0 50 -53 88
-98 70z m55 -45 c26 -32 -13 -81 -47 -59 -23 14 -28 41 -13 59 16 19 44 19 60
0z"/>
<path d="M895 530 c-77 -30 -57 -143 25 -143 41 0 73 32 73 73 0 50 -53 88
-98 70z m55 -45 c26 -32 -13 -81 -47 -59 -23 14 -28 41 -13 59 16 19 44 19 60
0z"/>
<path d="M615 470 c-77 -30 -57 -143 25 -143 41 0 73 32 73 73 0 50 -53 88
-98 70z m55 -45 c26 -32 -13 -81 -47 -59 -23 14 -28 41 -13 59 16 19 44 19 60
0z"/>
</g>
</svg>
